HIERARCHY
ROOT root
{
	OFFSET 0.000000 0.000000 0.000000
	CHANNELS 6 Xposition Yposition Zposition Zrotation Yrotation Xrotation
	JOINT lhip
	{
		OFFSET 0.058581 -0.082280 -0.017664
		CHANNELS 3 Zrotation Yrotation Xrotation
		JOINT lknee
		{
			OFFSET 0.043451 -0.386469 0.008037
			CHANNELS 3 Zrotation Yrotation Xrotation
			JOINT lankle
			{
				OFFSET -0.014790 -0.426874 -0.037428
				CHANNELS 3 Zrotation Yrotation Xrotation
				JOINT ltoe
				{
					OFFSET 0.041054 -0.060286 0.122042
					CHANNELS 3 Zrotation Yrotation Xrotation
					End Site
					{
						OFFSET 0.000000 0.000000 0.000000
					}
				}
			}
		}
	}
	JOINT rhip
	{
		OFFSET -0.060310 -0.090513 -0.013543
		CHANNELS 3 Zrotation Yrotation Xrotation
		JOINT rknee
		{
			OFFSET -0.043257 -0.383688 -0.004843
			CHANNELS 3 Zrotation Yrotation Xrotation
			JOINT rankle
			{
				OFFSET 0.019056 -0.420046 -0.034562
				CHANNELS 3 Zrotation Yrotation Xrotation
				JOINT rtoe
				{
					OFFSET -0.034840 -0.062106 0.130323
					CHANNELS 3 Zrotation Yrotation Xrotation
					End Site
					{
						OFFSET 0.000000 0.000000 0.000000
					}
				}
			}
		}
	}
	JOINT lowerback
	{
		OFFSET 0.004439 0.124404 -0.038385
		CHANNELS 3 Zrotation Yrotation Xrotation
		JOINT upperback
		{
			OFFSET 0.004488 0.137956 0.026820
			CHANNELS 3 Zrotation Yrotation Xrotation
			JOINT chest
			{
				OFFSET -0.002265 0.056032 0.002855
				CHANNELS 3 Zrotation Yrotation Xrotation
				JOINT lowerneck
				{
					OFFSET -0.013390 0.211636 -0.033468
					CHANNELS 3 Zrotation Yrotation Xrotation
					JOINT upperneck
					{
						OFFSET 0.010113 0.088937 0.050410
						CHANNELS 3 Zrotation Yrotation Xrotation
						End Site
						{
							OFFSET 0.000000 0.000000 0.000000
						}
					}
				}
				JOINT lclavicle
				{
					OFFSET 0.071702 0.114000 -0.018898
					CHANNELS 3 Zrotation Yrotation Xrotation
					JOINT lshoulder
					{
						OFFSET 0.122921 0.045205 -0.019046
						CHANNELS 3 Zrotation Yrotation Xrotation
						JOINT lelbow
						{
							OFFSET 0.255332 -0.015649 -0.022946
							CHANNELS 3 Zrotation Yrotation Xrotation
							JOINT lwrist
							{
								OFFSET 0.265709 0.012698 -0.007375
								CHANNELS 3 Zrotation Yrotation Xrotation
								End Site
								{
									OFFSET 0.000000 0.000000 0.000000
								}
							}
						}
					}
				}
				JOINT rclavicle
				{
					OFFSET -0.082954 0.112472 -0.023707
					CHANNELS 3 Zrotation Yrotation Xrotation
					JOINT rshoulder
					{
						OFFSET -0.113228 0.046853 -0.008472
						CHANNELS 3 Zrotation Yrotation Xrotation
						JOINT relbow
						{
							OFFSET -0.260127 -0.014369 -0.031269
							CHANNELS 3 Zrotation Yrotation Xrotation
							JOINT rwrist
							{
								OFFSET -0.269108 0.006794 -0.006027
								CHANNELS 3 Zrotation Yrotation Xrotation
								End Site
								{
									OFFSET 0.000000 0.000000 0.000000
								}
							}
						}
					}
				}
			}
		}
	}
}
MOTION
Frames: 10
Frame Time: 0.033333
1.054347 1.038292 0.976679 -87.463589 1.007794 85.967794 6.357675 -1.806463 -6.395831 -4.644209 -14.744434 11.179770 2.887217 5.994206 -13.527323 0.000000 -0.000000 0.000000 -6.163867 -4.029403 10.467095 1.945542 6.312573 10.731033 2.422178 -5.544233 -20.361275 0.000000 -0.000000 0.000000 -4.760862 5.831909 5.422584 1.756926 -1.431863 6.606459 0.737536 -0.465420 8.064724 7.801100 6.844296 16.020939 4.033763 2.746393 17.180391 -22.011674 8.822860 4.485118 -58.641664 -4.676781 6.421554 9.276869 -28.795140 6.423984 -1.383511 -0.806092 -11.385850 22.702472 -6.594343 2.989867 57.661178 4.412545 10.681273 -16.854652 34.417279 -5.425624 5.768288 1.443315 -10.649075 
1.046599 1.024173 0.976547 -88.071855 1.132192 86.378766 5.581183 -1.897763 -6.321357 -4.758118 -14.370522 11.365321 3.878784 6.471829 -14.310382 0.000000 -0.000000 0.000000 -6.427924 -3.443105 9.004263 1.378317 6.636877 13.291784 2.785843 -5.614850 -20.414129 0.000000 -0.000000 0.000000 -4.949932 5.928829 5.439711 1.755801 -1.118032 6.516460 0.577562 -0.449004 8.127043 7.839922 6.326044 16.207366 4.239190 2.440927 17.259635 -21.447932 8.346769 4.761511 -58.429103 -5.460260 6.524796 9.555724 -30.667633 6.132741 -1.027274 -0.806683 -11.676262 22.276351 -6.443939 3.470073 58.328339 4.163323 10.697991 -17.273784 34.750515 -5.860014 6.034189 1.648987 -11.145748 
1.042243 1.011236 0.977705 -89.137753 1.705393 86.570665 5.483480 -2.206301 -5.894510 -4.958483 -13.745553 11.016280 4.299222 7.260630 -14.471876 0.000000 -0.000000 0.000000 -6.063015 -2.692081 7.040159 0.828604 6.941425 16.497116 2.893841 -6.156808 -19.725367 0.000000 -0.000000 0.000000 -4.497117 6.249543 6.469739 1.752403 -0.654585 6.036141 0.480024 -0.314198 8.223914 7.872760 5.715609 15.644709 4.509152 1.757458 16.992919 -21.382734 8.055524 4.384515 -57.946130 -6.347801 6.879201 9.974506 -33.080045 5.354365 -0.625072 -1.039380 -11.953216 22.214093 -6.287938 3.217816 58.272669 3.665043 10.947179 -17.150408 34.894333 -6.416028 6.120881 1.648851 -11.323906 
1.034972 0.998967 0.979377 -89.666247 2.110933 86.440294 5.120933 -2.058894 -4.689076 -4.996826 -13.859439 10.137131 4.843336 7.726892 -14.565950 0.000000 -0.000000 0.000000 -6.072105 -2.775506 5.954532 0.372167 6.900059 19.435921 3.105233 -6.267233 -18.638772 0.000000 -0.000000 0.000000 -4.609940 6.025508 6.869602 1.988143 -0.437917 6.148190 0.660837 -0.235771 8.301326 7.818643 5.430242 15.768757 4.374276 1.740129 17.105196 -21.460842 8.319431 4.143663 -57.752388 -7.073336 6.992101 10.630433 -35.929071 4.754873 -0.162158 -1.351349 -12.437013 22.354145 -6.168054 3.238348 57.866289 3.457758 11.204503 -16.837400 34.311003 -6.071196 6.563919 1.461689 -10.367597 
1.029678 0.987603 0.981174 -89.949860 2.462684 86.532343 4.734143 -2.008033 -3.855069 -4.946348 -13.780405 9.195864 5.380751 7.800330 -14.468064 0.000000 -0.000000 0.000000 -6.120279 -2.797863 4.521832 0.095393 6.296483 22.252545 2.780150 -6.736575 -16.635993 0.000000 -0.000000 0.000000 -4.711914 5.531620 6.802314 2.172191 -0.511776 6.781771 0.794366 -0.101225 8.457535 7.814447 5.090683 15.756497 4.312534 1.709988 17.347071 -21.303189 8.511438 4.113117 -57.976984 -8.086369 7.141779 11.567612 -38.614734 3.793470 0.218978 -1.410315 -13.266838 22.446971 -5.941696 3.212854 57.921609 3.573403 11.358199 -17.258147 33.341184 -6.359917 6.606194 1.238325 -9.588531 
1.024284 0.976649 0.982619 -90.197199 2.816596 86.677756 4.341241 -1.886768 -2.918538 -4.764382 -14.012596 7.858426 5.822311 8.097845 -14.165409 0.000000 -0.000000 0.000000 -5.811790 -2.494256 2.632697 -0.532594 5.680268 25.749057 2.751647 -7.302782 -15.063537 0.000000 -0.000000 0.000000 -4.878961 5.034204 7.119108 2.501549 -0.329818 6.672626 1.026651 -0.260656 8.430838 7.754885 4.772540 15.662388 4.207009 1.763735 17.578887 -21.030985 8.775428 4.128196 -58.337512 -8.782956 7.386583 12.214992 -40.712085 3.113279 0.862095 -1.667138 -14.018129 22.279019 -6.247279 3.124764 57.977170 3.079494 11.505971 -17.302500 32.619376 -6.665173 6.665315 1.250419 -9.362191 
1.020197 0.966709 0.983630 -90.302940 2.962141 86.933468 3.870356 -1.950349 -2.203544 -4.665384 -14.072578 6.549805 6.169646 8.284429 -13.861105 0.000000 -0.000000 0.000000 -5.550453 -1.867727 0.528182 -1.146369 4.753471 29.389768 2.130940 -8.532320 -13.345917 0.000000 -0.000000 0.000000 -5.096059 4.575764 7.176828 2.706622 -0.269217 6.647310 1.166058 -0.525567 8.630126 7.703154 4.505150 15.548969 4.245143 1.921096 17.671117 -20.811798 8.721886 4.382963 -58.357662 -9.585971 7.617356 12.565003 -42.658833 2.635022 0.948862 -1.913750 -14.775992 22.391217 -6.550407 3.162900 58.062448 2.687133 11.633628 -17.699588 32.235295 -7.245697 6.872317 1.215719 -9.373705 
1.015219 0.957410 0.984526 -89.745690 3.178631 86.902544 3.347732 -1.951254 -1.259443 -4.369539 -14.693479 5.426866 6.483222 8.228513 -13.517136 0.000000 -0.000000 0.000000 -5.037400 -1.828347 -0.906919 -1.858627 3.768350 32.537183 1.909819 -9.719495 -12.218512 0.000000 -0.000000 0.000000 -5.155932 3.854241 7.668372 2.842953 -0.486233 6.536383 1.309428 -0.786133 8.853589 7.671153 4.417013 15.195694 4.257755 2.020353 17.501952 -20.576706 8.609513 4.339185 -58.321852 -10.232089 7.810223 12.515162 -44.057525 2.849557 0.744600 -1.770607 -14.845536 22.316023 -6.840967 3.127315 58.353959 2.161523 11.626993 -17.854185 31.809275 -7.630318 7.225158 1.245409 -9.431159 
1.011690 0.949569 0.985185 -89.515264 3.240013 86.800708 2.832467 -1.714498 -0.376334 -4.236092 -15.236235 4.418213 6.776349 8.320859 -13.387475 0.000000 -0.000000 0.000000 -4.387802 -1.347122 -2.617473 -2.344998 2.765544 35.665242 1.919777 -10.761188 -13.345932 0.000000 -0.000000 0.000000 -5.314449 3.204364 8.316113 2.928080 -0.590299 6.339775 1.312966 -1.076123 8.975141 7.864449 4.351145 15.072172 4.286481 1.721692 17.388032 -20.348908 8.447415 4.430254 -58.209512 -10.759515 7.898545 12.669381 -44.894791 2.752532 0.713573 -1.945666 -14.938973 22.210704 -6.938580 2.833634 58.769662 1.486197 11.722081 -17.720582 31.310870 -7.379972 7.516779 1.305753 -9.482001 
1.008361 0.942869 0.986015 -89.412977 3.391121 87.014525 2.558328 -2.068879 0.167835 -4.095381 -15.137904 3.561652 5.471168 8.620477 -13.978179 0.000000 -0.000000 0.000000 -3.163157 -0.740299 -4.621871 -2.930011 1.818860 37.971971 2.248181 -11.272139 -15.449432 0.000000 -0.000000 0.000000 -5.493693 2.881213 7.664008 3.303658 -1.354127 8.352906 1.010948 -0.600520 8.228558 8.182703 5.813661 14.660881 5.726965 -0.020866 16.931613 -19.445491 7.660681 3.110699 -58.942747 -10.014769 10.388552 13.281070 -44.894791 3.439389 5.832230 -2.474068 -18.859953 21.986458 -7.328715 2.092677 60.261372 0.554075 11.241767 -18.796743 30.775590 -4.327579 9.278103 2.596999 -10.419081 
